<?xml version="1.0" standalone="no"?>
<!DOCTYPE svg PUBLIC "-//W3C//DTD SVG 1.0//EN" "http://www.w3.org/TR/2001/REC-SVG-20010904/DTD/svg10.dtd">
<svg xmlns="http://www.w3.org/2000/svg" xmlns:xlink="http://www.w3.org/1999/xlink" id="body_1" width="22" height="19">

<g transform="matrix(1 0 0 1 0 0)">
    <path d="M20.2991 9.78586C 22.567 7.54338 22.567 3.90213 20.2991 1.68186C 18.0311 -0.560619 14.3486 -0.560619 12.0806 1.68186L12.0806 1.68186L10.9804 2.792L9.88007 1.70406C 7.61215 -0.560619 3.92957 -0.560619 1.6841 1.68186C 0.583822 2.76979 0 4.21297 0 5.74496C 0 7.27695 0.606277 8.72013 1.6841 9.80806L1.6841 9.80806L10.9804 19L20.2991 9.78586zM1.4371 5.74496C 1.4371 4.59042 1.8862 3.52469 2.71702 2.72539C 3.5703 1.88168 4.67058 1.45983 5.77086 1.45983C 6.87114 1.45983 7.97142 1.88168 8.8247 2.72539L8.8247 2.72539L10.9804 4.83465L13.136 2.70318C 14.8201 1.03798 17.582 1.03798 19.2437 2.70318C 20.0521 3.50248 20.5236 4.56821 20.5236 5.72276C 20.5236 6.8773 20.0745 7.94303 19.2437 8.74233L19.2437 8.74233L10.9804 16.9351L2.71702 8.76453C 1.90865 7.94303 1.4371 6.8773 1.4371 5.74496z" stroke="none" fill="#000000" fill-rule="nonzero" />
</g>
</svg>